<svg xmlns="http://www.w3.org/2000/svg" width="1394" height="304" viewBox="0 0 1394 304" font-family="-apple-system, 'Segoe UI', Helvetica, Arial, sans-serif">
  <title>pipeline-full:high</title>
  <defs>
    <marker id="arrow" viewBox="0 0 10 10" refX="9" refY="5" markerWidth="7" markerHeight="7" orient="auto-start-reverse">
      <path d="M0 0L10 5L0 10z" fill="#c8c8c8"/>
    </marker>
  </defs>
  <rect width="100%" height="100%" fill="#fff"/>
  <text x="24" y="32" text-anchor="start" font-size="15" font-weight="700" fill="#111">pipeline-full:high</text>
  <text x="24" y="54" text-anchor="start" font-size="12" fill="#6b6b6b">high · от 40 мин на задачу</text>
  <line x1="161" y1="158" x2="217" y2="98" stroke="#c8c8c8" stroke-width="1.2" marker-end="url(#arrow)"/>
  <line x1="161" y1="158" x2="217" y2="158" stroke="#c8c8c8" stroke-width="1.2" marker-end="url(#arrow)"/>
  <line x1="161" y1="158" x2="217" y2="218" stroke="#c8c8c8" stroke-width="1.2" marker-end="url(#arrow)"/>
  <line x1="384" y1="98" x2="440" y2="158" stroke="#c8c8c8" stroke-width="1.2" marker-end="url(#arrow)"/>
  <line x1="384" y1="158" x2="440" y2="158" stroke="#c8c8c8" stroke-width="1.2" marker-end="url(#arrow)"/>
  <line x1="384" y1="218" x2="440" y2="158" stroke="#c8c8c8" stroke-width="1.2" marker-end="url(#arrow)"/>
  <line x1="577" y1="158" x2="633" y2="98" stroke="#c8c8c8" stroke-width="1.2" marker-end="url(#arrow)"/>
  <line x1="577" y1="158" x2="633" y2="158" stroke="#c8c8c8" stroke-width="1.2" marker-end="url(#arrow)"/>
  <line x1="577" y1="158" x2="633" y2="218" stroke="#c8c8c8" stroke-width="1.2" marker-end="url(#arrow)"/>
  <line x1="759" y1="98" x2="815" y2="158" stroke="#c8c8c8" stroke-width="1.2" marker-end="url(#arrow)"/>
  <line x1="759" y1="158" x2="815" y2="158" stroke="#c8c8c8" stroke-width="1.2" marker-end="url(#arrow)"/>
  <line x1="759" y1="218" x2="815" y2="158" stroke="#c8c8c8" stroke-width="1.2" marker-end="url(#arrow)"/>
  <line x1="975" y1="158" x2="1031" y2="158" stroke="#c8c8c8" stroke-width="1.2" marker-end="url(#arrow)"/>
  <text x="92" y="154" text-anchor="middle" font-size="15" font-weight="700" fill="#111">ТЗ</text>
  <text x="92" y="172" text-anchor="middle" font-size="12" fill="#6b6b6b">Opus 5.5 · high</text>
  <text x="300" y="94" text-anchor="middle" font-size="15" font-weight="700" fill="#111">Критик</text>
  <text x="300" y="112" text-anchor="middle" font-size="12" fill="#6b6b6b">Sonnet 5.5 · high</text>
  <text x="300" y="154" text-anchor="middle" font-size="15" font-weight="700" fill="#111">Критик</text>
  <text x="300" y="172" text-anchor="middle" font-size="12" fill="#6b6b6b">DeepSeek V4.1 Flash</text>
  <text x="300" y="214" text-anchor="middle" font-size="15" font-weight="700" fill="#111">Критик</text>
  <text x="300" y="232" text-anchor="middle" font-size="12" fill="#6b6b6b">GLM 5.3 Flash</text>
  <text x="508" y="154" text-anchor="middle" font-size="15" font-weight="700" fill="#111">Код</text>
  <text x="508" y="172" text-anchor="middle" font-size="12" fill="#6b6b6b">Opus 5.5 · high</text>
  <text x="696" y="94" text-anchor="middle" font-size="15" font-weight="700" fill="#111">Линза scope</text>
  <text x="696" y="112" text-anchor="middle" font-size="12" fill="#6b6b6b">GLM 5.3 Flash</text>
  <text x="696" y="154" text-anchor="middle" font-size="15" font-weight="700" fill="#111">Линза holes</text>
  <text x="696" y="172" text-anchor="middle" font-size="12" fill="#6b6b6b">GLM 5.3 Flash</text>
  <text x="696" y="214" text-anchor="middle" font-size="15" font-weight="700" fill="#111">Линза intent</text>
  <text x="696" y="232" text-anchor="middle" font-size="12" fill="#6b6b6b">GLM 5.3 Flash</text>
  <text x="895" y="154" text-anchor="middle" font-size="15" font-weight="700" fill="#111">Судья по находке</text>
  <text x="895" y="172" text-anchor="middle" font-size="12" fill="#6b6b6b">Grok 4.7 · xhigh</text>
  <rect x="1031" y="134" width="339" height="46" rx="8" fill="none" stroke="#111" stroke-width="1"/>
  <text x="1200" y="154" text-anchor="middle" font-size="15" font-weight="700" fill="#111">Коммит порции</text>
  <text x="1200" y="172" text-anchor="middle" font-size="12" fill="#6b6b6b">оркестратор при чистых линзах, иначе судья</text>
  <path d="M895 184 C895 288 508 288 508 184" fill="none" stroke="#c8c8c8" stroke-width="1.2" stroke-dasharray="5 4" marker-end="url(#arrow)"/>
  <text x="701" y="280" text-anchor="middle" font-size="12" fill="#6b6b6b">красный вердикт</text>
</svg>
