<svg xmlns="http://www.w3.org/2000/svg" width="1046" height="304" viewBox="0 0 1046 304" font-family="-apple-system, 'Segoe UI', Helvetica, Arial, sans-serif">
  <title>pipeline-full:low</title>
  <defs>
    <marker id="arrow" viewBox="0 0 10 10" refX="9" refY="5" markerWidth="7" markerHeight="7" orient="auto-start-reverse">
      <path d="M0 0L10 5L0 10z" fill="#c8c8c8"/>
    </marker>
  </defs>
  <rect width="100%" height="100%" fill="#fff"/>
  <text x="24" y="32" text-anchor="start" font-size="15" font-weight="700" fill="#111">pipeline-full:low</text>
  <text x="24" y="54" text-anchor="start" font-size="12" fill="#6b6b6b">low · на 20 мин, с ТЗ и критикой</text>
  <line x1="153" y1="158" x2="209" y2="98" stroke="#c8c8c8" stroke-width="1.2" marker-end="url(#arrow)"/>
  <line x1="153" y1="158" x2="209" y2="158" stroke="#c8c8c8" stroke-width="1.2" marker-end="url(#arrow)"/>
  <line x1="153" y1="158" x2="209" y2="218" stroke="#c8c8c8" stroke-width="1.2" marker-end="url(#arrow)"/>
  <line x1="391" y1="98" x2="447" y2="158" stroke="#c8c8c8" stroke-width="1.2" marker-end="url(#arrow)"/>
  <line x1="391" y1="158" x2="447" y2="158" stroke="#c8c8c8" stroke-width="1.2" marker-end="url(#arrow)"/>
  <line x1="391" y1="218" x2="447" y2="158" stroke="#c8c8c8" stroke-width="1.2" marker-end="url(#arrow)"/>
  <line x1="554" y1="158" x2="610" y2="158" stroke="#c8c8c8" stroke-width="1.2" marker-end="url(#arrow)"/>
  <line x1="747" y1="158" x2="803" y2="158" stroke="#c8c8c8" stroke-width="1.2" marker-end="url(#arrow)"/>
  <text x="88" y="154" text-anchor="middle" font-size="15" font-weight="700" fill="#111">ТЗ</text>
  <text x="88" y="172" text-anchor="middle" font-size="12" fill="#6b6b6b">Opus 5.5 · low</text>
  <text x="300" y="94" text-anchor="middle" font-size="15" font-weight="700" fill="#111">Критик</text>
  <text x="300" y="112" text-anchor="middle" font-size="12" fill="#6b6b6b">GLM 5.3 Flash · high</text>
  <text x="300" y="154" text-anchor="middle" font-size="15" font-weight="700" fill="#111">Критик</text>
  <text x="300" y="172" text-anchor="middle" font-size="12" fill="#6b6b6b">DeepSeek Flash · high</text>
  <text x="300" y="214" text-anchor="middle" font-size="15" font-weight="700" fill="#111">Критик</text>
  <text x="300" y="232" text-anchor="middle" font-size="12" fill="#6b6b6b">Haiku 5.5 · high</text>
  <text x="500" y="154" text-anchor="middle" font-size="15" font-weight="700" fill="#111">Код</text>
  <text x="500" y="172" text-anchor="middle" font-size="12" fill="#6b6b6b">SWE-2 · max</text>
  <text x="678" y="154" text-anchor="middle" font-size="15" font-weight="700" fill="#111">Приёмка</text>
  <text x="678" y="172" text-anchor="middle" font-size="12" fill="#6b6b6b">Grok 4.7 · high</text>
  <rect x="803" y="134" width="219" height="46" rx="8" fill="none" stroke="#111" stroke-width="1"/>
  <text x="912" y="154" text-anchor="middle" font-size="15" font-weight="700" fill="#111">Коммит порции</text>
  <text x="912" y="172" text-anchor="middle" font-size="12" fill="#6b6b6b">судья при зелёном вердикте</text>
  <path d="M678 184 C678 288 500 288 500 184" fill="none" stroke="#c8c8c8" stroke-width="1.2" stroke-dasharray="5 4" marker-end="url(#arrow)"/>
  <text x="589" y="280" text-anchor="middle" font-size="12" fill="#6b6b6b">красный вердикт</text>
</svg>
