<svg xmlns="http://www.w3.org/2000/svg" width="1439" height="304" viewBox="0 0 1439 304" font-family="-apple-system, 'Segoe UI', Helvetica, Arial, sans-serif">
  <title>pipeline-full:medium</title>
  <defs>
    <marker id="arrow" viewBox="0 0 10 10" refX="9" refY="5" markerWidth="7" markerHeight="7" orient="auto-start-reverse">
      <path d="M0 0L10 5L0 10z" fill="#c8c8c8"/>
    </marker>
  </defs>
  <rect width="100%" height="100%" fill="#fff"/>
  <text x="24" y="32" text-anchor="start" font-size="15" font-weight="700" fill="#111">pipeline-full:medium</text>
  <text x="24" y="54" text-anchor="start" font-size="12" fill="#6b6b6b">medium · 30 мин на задачу, когда работа понятная</text>
  <line x1="176" y1="158" x2="232" y2="128" stroke="#c8c8c8" stroke-width="1.2" marker-end="url(#arrow)"/>
  <line x1="176" y1="158" x2="232" y2="188" stroke="#c8c8c8" stroke-width="1.2" marker-end="url(#arrow)"/>
  <line x1="414" y1="128" x2="470" y2="158" stroke="#c8c8c8" stroke-width="1.2" marker-end="url(#arrow)"/>
  <line x1="414" y1="188" x2="470" y2="158" stroke="#c8c8c8" stroke-width="1.2" marker-end="url(#arrow)"/>
  <line x1="622" y1="158" x2="678" y2="98" stroke="#c8c8c8" stroke-width="1.2" marker-end="url(#arrow)"/>
  <line x1="622" y1="158" x2="678" y2="158" stroke="#c8c8c8" stroke-width="1.2" marker-end="url(#arrow)"/>
  <line x1="622" y1="158" x2="678" y2="218" stroke="#c8c8c8" stroke-width="1.2" marker-end="url(#arrow)"/>
  <line x1="804" y1="98" x2="860" y2="158" stroke="#c8c8c8" stroke-width="1.2" marker-end="url(#arrow)"/>
  <line x1="804" y1="158" x2="860" y2="158" stroke="#c8c8c8" stroke-width="1.2" marker-end="url(#arrow)"/>
  <line x1="804" y1="218" x2="860" y2="158" stroke="#c8c8c8" stroke-width="1.2" marker-end="url(#arrow)"/>
  <line x1="1020" y1="158" x2="1076" y2="158" stroke="#c8c8c8" stroke-width="1.2" marker-end="url(#arrow)"/>
  <text x="100" y="154" text-anchor="middle" font-size="15" font-weight="700" fill="#111">ТЗ</text>
  <text x="100" y="172" text-anchor="middle" font-size="12" fill="#6b6b6b">Opus 5.5 · medium</text>
  <text x="323" y="124" text-anchor="middle" font-size="15" font-weight="700" fill="#111">Критик</text>
  <text x="323" y="142" text-anchor="middle" font-size="12" fill="#6b6b6b">Sonnet 5.5 · high</text>
  <text x="323" y="184" text-anchor="middle" font-size="15" font-weight="700" fill="#111">Критик</text>
  <text x="323" y="202" text-anchor="middle" font-size="12" fill="#6b6b6b">DeepSeek Flash · high</text>
  <text x="546" y="154" text-anchor="middle" font-size="15" font-weight="700" fill="#111">Код</text>
  <text x="546" y="172" text-anchor="middle" font-size="12" fill="#6b6b6b">Opus 5.5 · medium</text>
  <text x="741" y="94" text-anchor="middle" font-size="15" font-weight="700" fill="#111">Линза scope</text>
  <text x="741" y="112" text-anchor="middle" font-size="12" fill="#6b6b6b">Haiku 5.5</text>
  <text x="741" y="154" text-anchor="middle" font-size="15" font-weight="700" fill="#111">Линза holes</text>
  <text x="741" y="172" text-anchor="middle" font-size="12" fill="#6b6b6b">Haiku 5.5</text>
  <text x="741" y="214" text-anchor="middle" font-size="15" font-weight="700" fill="#111">Линза intent</text>
  <text x="741" y="232" text-anchor="middle" font-size="12" fill="#6b6b6b">Haiku 5.5</text>
  <text x="940" y="154" text-anchor="middle" font-size="15" font-weight="700" fill="#111">Судья по находке</text>
  <text x="940" y="172" text-anchor="middle" font-size="12" fill="#6b6b6b">Grok 4.7 · high</text>
  <rect x="1076" y="134" width="339" height="46" rx="8" fill="none" stroke="#111" stroke-width="1"/>
  <text x="1245" y="154" text-anchor="middle" font-size="15" font-weight="700" fill="#111">Коммит порции</text>
  <text x="1245" y="172" text-anchor="middle" font-size="12" fill="#6b6b6b">оркестратор при чистых линзах, иначе судья</text>
  <path d="M940 184 C940 288 546 288 546 184" fill="none" stroke="#c8c8c8" stroke-width="1.2" stroke-dasharray="5 4" marker-end="url(#arrow)"/>
  <text x="743" y="280" text-anchor="middle" font-size="12" fill="#6b6b6b">красный вердикт</text>
</svg>
